<svg width="172" height="38" viewBox="0 0 172 38" fill="none" xmlns="http://www.w3.org/2000/svg">
<g clip-path="url(#clip0_330_6547)">
<path d="M34.5376 16.7888V13.6797H28.8272V18.1015H33.5056V26.1851H28.8272V27.4979H25.5936V30.607H34.5376V27.567H37.7712V16.7888H34.5376Z" fill="white"/>
<path d="M16.0304 11.8835H24.5616V13.6799H28.8272V10.5708H25.5936V7.39258H14.9984V10.5708H11.7648V13.6799H16.0304V11.8835Z" fill="white"/>
<path d="M23.9425 27.5674H16.6497V30.6765H23.9425V27.5674Z" fill="white"/>
<path d="M14.9984 27.4979H11.7648V26.1851H7.0864V18.1015H11.7648V13.6797H6.0544V16.7888H2.8208V27.567H6.0544V30.607H14.9984V27.4979Z" fill="white"/>
<path d="M34.5373 16.7888V13.6797H28.8269V18.1015H33.5053V26.1851H28.8269V27.4979H25.5933V30.607H34.5373V27.567H37.7709V16.7888H34.5373Z" fill="#FF5836"/>
<path d="M16.03 11.8835H24.5612V13.6799H28.8268V10.5708H25.5932V7.39258H14.998V10.5708H11.7644V13.6799H16.03V11.8835Z" fill="#FF5836"/>
<path d="M23.9421 27.5674H16.6493V30.6765H23.9421V27.5674Z" fill="#FF5836"/>
<path d="M14.998 27.4979H11.7644V26.1851H7.08603V18.1015H11.7644V13.6797H6.05403V16.7888H2.82043V27.567H6.05403V30.607H14.998V27.4979Z" fill="#FF5836"/>
</g>
<path d="M155.857 30.7948V27.705H152.708V18.2921H149.524V13.8371H152.708V7.5498H156.93V13.8371H166.518V18.2921H156.93V26.3398H165.48V23.2141H169.738V27.705H166.518V30.7948H155.857Z" fill="white"/>
<path d="M129.031 30.7956V26.3406H141.767V24.5442H132.215V21.3826H129.031V16.9636H132.215V13.8379H146.024V18.2929H133.252V20.0533H142.804V23.2149H146.024V27.7058H142.804V30.7956H129.031Z" fill="white"/>
<path d="M111.033 30.7956V27.7058H107.849V16.9636H111.033V13.8379H121.623V16.9636H124.842V21.3826H120.585V18.2929H112.07V20.0533H118.474V24.5442H112.07V26.3406H120.585V23.179H124.842V27.6699H121.623V30.7956H111.033Z" fill="white"/>
<path d="M87.7502 30.7956V13.8379H101.524V16.9636H104.744V30.7956H100.486V18.2929H91.9718V30.7956H87.7502Z" fill="white"/>
<path d="M70.3853 30.7948V27.705H67.237V18.2921H64.053V13.8371H67.237V7.5498H71.4586V13.8371H81.0466V18.2921H71.4586V26.3398H80.0091V23.2141H84.2664V27.705H81.0466V30.7948H70.3853Z" fill="white"/>
<path d="M44.2473 30.7956V16.9636H47.4314V13.8379H58.0211V16.9636H61.2409V21.3826H56.9836V18.2929H48.4689V30.7956H44.2473Z" fill="white"/>
<rect x="37.84" y="26.9453" width="4.128" height="4.14546" fill="#FF5836"/>
<defs>
<clipPath id="clip0_330_6547">
<rect width="35.088" height="24.1818" fill="white" transform="translate(2.75195 6.90918)"/>
</clipPath>
</defs>
</svg>
